<svg class="main-svg" xmlns="http://www.w3.org/2000/svg" xmlns:xlink="http://www.w3.org/1999/xlink" width="500" height="500" viewBox="0 0 500 500"><rect x="0" y="0" width="500" height="500" style="fill: rgb(255, 255, 255); fill-opacity: 1;"/><defs id="defs-9c45c7"><g class="clips"/><g class="gradients"/></defs><g class="bglayer"/><g class="layer-below"><g class="imagelayer"/><g class="shapelayer"/></g><g class="cartesianlayer"/><g class="polarlayer"/><g class="ternarylayer"/><g class="geolayer"/><g class="funnelarealayer"/><g class="pielayer"><g class="trace" stroke-linejoin="round" style="opacity: 1;"><g class="slice"><path class="surface" d="M141.1055556972717,358.89444430272835a154,154 0 0 0 217.78888860545663,-3.979039320256561e-14l46.669047558312144,46.66904755831214a220,220 0 0 1 -311.1269837220809,5.684341886080802e-14Z" style="pointer-events: all; stroke-width: 0; fill: rgb(255, 255, 255); fill-opacity: 1; stroke: rgb(68, 68, 68); stroke-opacity: 1;"/></g><g class="slice"><path class="surface" d="M134.4828952769093,351.84202725984244a154,154 0 0 0 6.622660420362413,7.052417042885898l-46.66904755831214,46.66904755831215a220,220 0 0 1 -9.46094345766059,-10.074881489836997Z" style="pointer-events: all; stroke-width: 0; fill: rgb(9, 191, 0); fill-opacity: 1; stroke: rgb(68, 68, 68); stroke-opacity: 1;"/></g><g class="slice"><path class="surface" d="M358.8944443027284,358.8944443027282a154,154 0 1 0 -224.41154902581914,-7.052417042885739l-49.50733059561031,43.64658311136105a220,220 0 1 1 320.58792717974165,10.07488148983677Z" style="pointer-events: all; stroke-width: 0; fill: rgb(219, 219, 219); fill-opacity: 1; stroke: rgb(68, 68, 68); stroke-opacity: 1;"/></g></g></g><g class="sunburstlayer"/><g class="glimages"/><defs id="topdefs-9c45c7"><g class="clips"/></defs><g class="layer-above"><g class="imagelayer"/><g class="shapelayer"/></g><g class="infolayer"><g class="g-gtitle"/><g class="annotation" data-index="0" style="opacity: 1;"><g class="annotation-text-g" transform="rotate(0,250,236.79999999999998)"><g class="cursor-pointer" transform="translate(185, 211)"><rect class="bg" x="0.5" y="0.5" width="130" height="51" style="stroke-width: 1px; stroke: rgb(0, 0, 0); stroke-opacity: 0; fill: rgb(0, 0, 0); fill-opacity: 0;"/><text class="annotation-text" text-anchor="middle" x="64.625" y="42" style="font-family: 'Open Sans', verdana, arial, sans-serif; font-size: 40px; fill: rgb(42, 63, 95); fill-opacity: 1; white-space: pre;">PPBAL</text></g></g></g><g class="annotation" data-index="1" style="opacity: 1;"><g class="annotation-text-g" transform="rotate(0,250,394.2)"><g class="cursor-pointer" transform="translate(237, 371)"><rect class="bg" x="0.5" y="0.5" width="25" height="45" style="stroke-width: 1px; stroke: rgb(0, 0, 0); stroke-opacity: 0; fill: rgb(0, 0, 0); fill-opacity: 0;"/><text class="annotation-text" text-anchor="middle" x="13.125" y="37" style="font-family: 'Open Sans', verdana, arial, sans-serif; font-size: 35px; fill: rgb(42, 63, 95); fill-opacity: 1; white-space: pre;">1</text></g></g></g><g class="annotation" data-index="2" style="opacity: 1;"><g class="annotation-text-g" transform="rotate(0,154.4,351.8)"><g class="cursor-pointer" transform="translate(144, 335)"><rect class="bg" x="0.5" y="0.5" width="19" height="33" style="stroke-width: 1px; stroke: rgb(0, 0, 0); stroke-opacity: 0; fill: rgb(0, 0, 0); fill-opacity: 0;"/><text class="annotation-text" text-anchor="middle" x="9.9375" y="27" style="font-family: 'Open Sans', verdana, arial, sans-serif; font-size: 25px; fill: rgb(42, 63, 95); fill-opacity: 1; white-space: pre;">0</text></g></g></g><g class="annotation" data-index="3" style="opacity: 1;"><g class="annotation-text-g" transform="rotate(0,356,302.8)"><g class="cursor-pointer" transform="translate(330, 286)"><rect class="bg" x="0.5" y="0.5" width="51" height="33" style="stroke-width: 1px; stroke: rgb(0, 0, 0); stroke-opacity: 0; fill: rgb(0, 0, 0); fill-opacity: 0;"/><text class="annotation-text" text-anchor="middle" x="25.828125" y="27" style="font-family: 'Open Sans', verdana, arial, sans-serif; font-size: 25px; fill: rgb(42, 63, 95); fill-opacity: 1; white-space: pre;">500</text></g></g></g></g></svg>